# xmcd CD database file
# Copyright (C) 1993-1998 Ti Kan
#
# Track frame offsets:
#  225
#  13024
#  30678
#  45243
#  111658
#  143628
#  159321
#  213351
#  237333
#  260580
#  279732
#  288354
#  303410
#
# Disc length: 4271 seconds
#
# Revision: 1
# Processed by: cddbd v1.4b41PL1 Copyright (c) Steve Scherf et al.
# Submitted via: CDWizzard Release:4.31
#
DISCID=b910ac0d
DTITLE=Stevie Ray Vaughan And Double Trouble - Up From The Skies
DYEAR=1900
DGENRE=
TTITLE0=Rude Mood
TTITLE1=Pride and Joy
TTITLE2=Testify
TTITLE3=Voodoo Chile
TTITLE4=Ain't Gonna Give Up On Love
TTITLE5=Pride and Joy
TTITLE6=Life Without You
TTITLE7=Love Struck Baby
TTITLE8=Say What
TTITLE9=Change It
TTITLE10=Stevie's Shuffle
TTITLE11=Let The Good Times Roll
TTITLE12=Hangnails and Bugers
EXTD=Tracks 1-3 - MTV "Unplugged"\nTracks 4-10 - European TV, '84-86\nTra
EXTD=cks 11-13 - Studio Outtakes '85-86
EXTT0=
EXTT1=
EXTT2=
EXTT3=
EXTT4=
EXTT5=
EXTT6=
EXTT7=
EXTT8=
EXTT9=
EXTT10=
EXTT11=
EXTT12=
PLAYORDER=
